<svg width="56" height="56" viewBox="0 0 56 56" fill="none" xmlns="http://www.w3.org/2000/svg">
<path fill-rule="evenodd" clip-rule="evenodd" d="M53 28C53 41.8071 41.8071 53 28 53C14.1929 53 3 41.8071 3 28C3 14.1929 14.1929 3 28 3C41.8071 3 53 14.1929 53 28ZM56 28C56 43.464 43.464 56 28 56C12.536 56 0 43.464 0 28C0 12.536 12.536 0 28 0C43.464 0 56 12.536 56 28ZM25.0299 18.9095C24.4277 18.3407 23.4783 18.3678 22.9095 18.9701C22.3407 19.5723 22.3678 20.5217 22.9701 21.0905L30.8154 28.5L22.9701 35.9095C22.3678 36.4783 22.3407 37.4277 22.9095 38.0299C23.4783 38.6322 24.4277 38.6593 25.0299 38.0905L34.0299 29.5905L35.1846 28.5L34.0299 27.4095L25.0299 18.9095Z" fill="white"/>
</svg>
