<svg width="118" height="13" viewBox="0 0 118 13" fill="none" xmlns="http://www.w3.org/2000/svg">
<path d="M20 1H22.6939V4.86792H27.3061V1H30V11H27.3061V6.9434H22.6939V11H20V1Z" fill="white"/>
<path d="M37.196 12C36.4902 12 35.817 11.8941 35.1764 11.6823C34.549 11.4573 34 11.1264 33.5294 10.6895C33.0588 10.2395 32.6862 9.67689 32.4117 9.0018C32.1372 8.31347 32 7.51263 32 6.59927V6.20216C32 5.32852 32.1307 4.56738 32.3921 3.91877C32.6536 3.27016 33.0131 2.73404 33.4705 2.31047C33.9281 1.87364 34.4575 1.54933 35.0588 1.33755C35.6601 1.11251 36.3071 1 36.9999 1C38.634 1 39.8757 1.43682 40.7254 2.31047C41.5751 3.18411 42 4.44826 42 6.10288V7.2148H34.6471C34.6601 7.6781 34.7386 8.08183 34.8823 8.42599C35.026 8.75691 35.2157 9.02827 35.4509 9.24007C35.6863 9.45187 35.9543 9.61071 36.2548 9.7166C36.5686 9.80926 36.8823 9.8556 37.196 9.8556C37.8628 9.8556 38.366 9.7563 38.7058 9.55775C39.0457 9.35921 39.2875 9.06798 39.4313 8.68411H41.8039C41.5948 9.78278 41.0784 10.6101 40.2548 11.1661C39.4313 11.722 38.4117 12 37.196 12ZM37.0981 3.1444C36.7973 3.1444 36.4967 3.18411 36.1961 3.26353C35.9085 3.34295 35.6535 3.46871 35.4313 3.64079C35.2092 3.81287 35.026 4.04453 34.8823 4.33573C34.7386 4.62694 34.6601 4.97774 34.6471 5.38808H39.4901C39.477 4.95126 39.4051 4.58724 39.2744 4.29603C39.1568 4.0048 38.9869 3.77316 38.7647 3.60107C38.5554 3.429 38.3071 3.30986 38.0196 3.24368C37.732 3.1775 37.4248 3.1444 37.0981 3.1444Z" fill="white"/>
<path d="M45.2362 3.07548H42V1H51V3.07548H47.7638V11H45.2362V3.07548Z" fill="white"/>
<path d="M58 12C57.3207 12 56.6729 11.8941 56.0566 11.6823C55.4528 11.4573 54.9245 11.1197 54.4717 10.6697C54.0189 10.2196 53.6603 9.65703 53.3962 8.98195C53.1321 8.30686 53 7.51263 53 6.59927V6.20216C53 5.34175 53.1321 4.58724 53.3962 3.93862C53.6603 3.29 54.0189 2.74729 54.4717 2.31047C54.9245 1.87364 55.4528 1.54933 56.0566 1.33755C56.6729 1.11251 57.3207 1 58 1C58.6792 1 59.3208 1.11251 59.9245 1.33755C60.5283 1.54933 61.0566 1.87364 61.5094 2.31047C61.9749 2.74729 62.3396 3.29 62.6038 3.93862C62.8679 4.58724 63 5.34175 63 6.20216V6.59927C63 7.4994 62.8679 8.287 62.6038 8.96209C62.3396 9.63719 61.9749 10.1998 61.5094 10.6498C61.0566 11.0999 60.5283 11.4374 59.9245 11.6625C59.3208 11.8875 58.6792 12 58 12ZM58 9.77617C58.7043 9.77617 59.2892 9.51143 59.7547 8.98195C60.2327 8.45247 60.4717 7.65824 60.4717 6.59927V6.20216C60.4717 5.23586 60.2327 4.50119 59.7547 3.99819C59.2892 3.48195 58.7043 3.22382 58 3.22382C57.283 3.22382 56.6917 3.48195 56.2264 3.99819C55.7609 4.50119 55.5283 5.23586 55.5283 6.20216V6.59927C55.5283 7.67147 55.7609 8.47231 56.2264 9.0018C56.6917 9.51805 57.283 9.77617 58 9.77617Z" fill="white"/>
<path d="M64.7843 12C64.6797 12 64.5491 11.9932 64.3922 11.9797C64.2354 11.9797 64.1046 11.9662 64 11.9391V9.52399C64.0654 9.53751 64.1635 9.54427 64.2941 9.54427C64.5425 9.54427 64.7582 9.46986 64.9412 9.32102C65.1242 9.15866 65.2746 8.88807 65.3922 8.50923C65.5229 8.13038 65.6144 7.62976 65.6666 7.00739C65.732 6.37146 65.7648 5.58672 65.7648 4.65313V1H74V11.7565H71.4118V3.23248H68.1569V5.05904C68.1569 6.45264 68.085 7.6027 67.9413 8.50923C67.8105 9.40221 67.6013 10.1058 67.3138 10.6199C67.0392 11.1341 66.6863 11.4926 66.255 11.6956C65.8366 11.8985 65.3464 12 64.7843 12Z" fill="white"/>
<path d="M81.0001 12C80.3207 12 79.6729 11.8941 79.0567 11.6823C78.4529 11.4573 77.9245 11.1197 77.4717 10.6697C77.0188 10.2196 76.6604 9.65703 76.3963 8.98195C76.1321 8.30686 76 7.51263 76 6.59927V6.20216C76 5.34175 76.1321 4.58724 76.3963 3.93862C76.6604 3.29 77.0188 2.74729 77.4717 2.31047C77.9245 1.87364 78.4529 1.54933 79.0567 1.33755C79.6729 1.11251 80.3207 1 81.0001 1C81.6793 1 82.3208 1.11251 82.9244 1.33755C83.5282 1.54933 84.0566 1.87364 84.5094 2.31047C84.9748 2.74729 85.3396 3.29 85.6037 3.93862C85.8678 4.58724 86 5.34175 86 6.20216V6.59927C86 7.4994 85.8678 8.287 85.6037 8.96209C85.3396 9.63719 84.9748 10.1998 84.5094 10.6498C84.0566 11.0999 83.5282 11.4374 82.9244 11.6625C82.3208 11.8875 81.6793 12 81.0001 12ZM81.0001 9.77617C81.7044 9.77617 82.2893 9.51143 82.7548 8.98195C83.2327 8.45247 83.4717 7.65824 83.4717 6.59927V6.20216C83.4717 5.23586 83.2327 4.50119 82.7548 3.99819C82.2893 3.48195 81.7044 3.22382 81.0001 3.22382C80.283 3.22382 79.6918 3.48195 79.2265 3.99819C78.761 4.50119 78.5283 5.23586 78.5283 6.20216V6.59927C78.5283 7.67147 78.761 8.47231 79.2265 9.0018C79.6918 9.51805 80.283 9.77617 81.0001 9.77617Z" fill="white"/>
<path d="M88 1H95V3.07548H90.4317V11H88V1Z" fill="white"/>
<path d="M97 1H99.6939V7.4151L104.51 1H107V11H104.306V4.58491L99.4899 11H97V1Z" fill="white"/>
<path d="M110.796 7.24529C109.966 6.99371 109.361 6.61636 108.98 6.11322C108.599 5.61006 108.408 5.01886 108.408 4.33962C108.408 3.84906 108.497 3.40252 108.673 3C108.864 2.58491 109.143 2.23271 109.51 1.9434C109.878 1.64151 110.34 1.40881 110.898 1.24529C111.469 1.08176 112.136 1 112.898 1H118V11H115.306V7.54717H113.367L111.02 11H108L110.796 7.24529ZM111.102 4.33962C111.102 4.7673 111.252 5.08177 111.551 5.28302C111.864 5.48428 112.279 5.58491 112.796 5.58491H115.306V3.07548H112.796C112.279 3.07548 111.864 3.18239 111.551 3.39622C111.252 3.59748 111.102 3.91195 111.102 4.33962Z" fill="white"/>
<path fill-rule="evenodd" clip-rule="evenodd" d="M3.24279 7.00969C3.1627 7.00326 3.08173 7 3 7C1.34315 7 0 8.34315 0 10C0 11.6568 1.34315 13 3 13C4.65685 13 6 11.6568 6 10C6 9.87281 5.99208 9.74749 5.97672 9.62446C4.55802 9.51084 3.41769 8.41023 3.24279 7.00969Z" fill="white"/>
<path fill-rule="evenodd" clip-rule="evenodd" d="M6 3C6 1.34315 4.65685 0 3 0C1.34315 0 1.64605e-07 1.34315 0 3C-2.98043e-07 4.65685 1.34315 6 3 6C3.07673 6 3.15278 5.99712 3.22804 5.99147C3.33893 4.51642 4.51642 3.33893 5.99147 3.22804C5.99712 3.15278 6 3.07673 6 3Z" fill="white"/>
<path fill-rule="evenodd" clip-rule="evenodd" d="M9.62446 5.97672C9.74749 5.99208 9.87281 6 10 6C11.6568 6 13 4.65685 13 3C13 1.34315 11.6568 0 10 0C8.34315 0 7 1.34315 7 3C7 3.08173 7.00326 3.1627 7.00969 3.24279C8.41023 3.41769 9.51084 4.55802 9.62446 5.97672Z" fill="white"/>
<path fill-rule="evenodd" clip-rule="evenodd" d="M7.02526 9.60889C7.00859 9.73689 7 9.86744 7 10C7 11.6568 8.34315 13 10 13C11.6568 13 13 11.6568 13 10C13 8.34315 11.6568 7 10 7C9.86744 7 9.73689 7.00859 9.60889 7.02526C9.43389 8.3693 8.3693 9.43389 7.02526 9.60889Z" fill="white"/>
</svg>
