<svg width="56" height="56" viewBox="0 0 56 56" fill="none" xmlns="http://www.w3.org/2000/svg">
<path fill-rule="evenodd" clip-rule="evenodd" d="M53 28C53 41.8071 41.8071 53 28 53C14.1929 53 3 41.8071 3 28C3 14.1929 14.1929 3 28 3C41.8071 3 53 14.1929 53 28ZM56 28C56 43.464 43.464 56 28 56C12.536 56 0 43.464 0 28C0 12.536 12.536 0 28 0C43.464 0 56 12.536 56 28ZM29.9701 18.9095C30.5723 18.3407 31.5217 18.3678 32.0905 18.9701C32.6593 19.5723 32.6322 20.5217 32.0299 21.0905L24.1846 28.5L32.0299 35.9095C32.6322 36.4783 32.6593 37.4277 32.0905 38.0299C31.5217 38.6322 30.5723 38.6593 29.9701 38.0905L20.9701 29.5905L19.8154 28.5L20.9701 27.4095L29.9701 18.9095Z" fill="white"/>
</svg>
